<svg width="88" height="94" viewBox="0 0 88 94" fill="none" xmlns="http://www.w3.org/2000/svg">
<path fill-rule="evenodd" clip-rule="evenodd" d="M0 12.5333C0 9.20929 1.32449 6.02138 3.68209 3.67093C6.03969 1.32047 9.23728 0 12.5714 0H75.4286C78.7627 0 81.9603 1.32047 84.3179 3.67093C86.6755 6.02138 88 9.20929 88 12.5333V62.6667C88 65.9907 86.6755 69.1786 84.3179 71.5291C81.9603 73.8795 78.7627 75.2 75.4286 75.2H61.4743L62.2474 78.2644L67.3011 83.3028C68.1799 84.1792 68.7784 85.2957 69.0208 86.5111C69.2632 87.7266 69.1388 88.9864 68.6631 90.1313C68.1875 91.2762 67.382 92.2548 66.3486 92.9435C65.3152 93.6321 64.1001 93.9997 62.8571 94H25.1429C23.8999 93.9997 22.6848 93.6321 21.6514 92.9435C20.618 92.2548 19.8125 91.2762 19.3369 90.1313C18.8612 88.9864 18.7368 87.7266 18.9792 86.5111C19.2216 85.2957 19.8201 84.1792 20.6989 83.3028L25.7526 78.2644L26.5257 75.2H12.5714C9.23728 75.2 6.03969 73.8795 3.68209 71.5291C1.32449 69.1786 0 65.9907 0 62.6667V12.5333ZM36.2749 56.4H12.5714V12.5333H75.4286V56.4H36.2749Z" fill="#FEFBFB"/>
</svg>
