<svg width="125" height="95" viewBox="0 0 125 95" fill="none" xmlns="http://www.w3.org/2000/svg">
<path d="M124.469 74.7428L113.945 19.1662C111.558 8.27386 107.749 0 90.24 0H34.7492C16.9706 0 13.431 8.27386 11.0444 19.1662L0.538848 74.7428C-1.34676 83.9533 1.73217 91.277 9.52782 94.1276C17.3235 96.9782 23.4355 92.5916 27.794 84.0343L31.9477 75.7955C32.3075 75.0826 32.8574 74.4837 33.5365 74.0652C34.2156 73.6468 34.9972 73.4253 35.7944 73.4254H89.2056C90.0028 73.4253 90.7844 73.6468 91.4635 74.0652C92.1425 74.4837 92.6925 75.0826 93.0523 75.7955L97.206 84.0343C101.554 92.5916 107.679 96.9917 115.472 94.1276C123.265 91.2635 126.336 83.9533 124.469 74.7428ZM56.0297 43.1914H43.0998V56.1488H34.4798V43.1914H21.5499V34.5531H34.4798V21.5957H43.0998V34.5531H56.0297V43.1914ZM74.347 44.2712C73.2815 44.2712 72.2399 43.9546 71.3539 43.3613C70.4679 42.7681 69.7774 41.9249 69.3696 40.9384C68.9619 39.9518 68.8552 38.8663 69.0631 37.819C69.271 36.7717 69.784 35.8097 70.5375 35.0547C71.2909 34.2996 72.2509 33.7854 73.296 33.5771C74.341 33.3688 75.4243 33.4757 76.4087 33.8843C77.3931 34.293 78.2345 34.9849 78.8265 35.8728C79.4185 36.7606 79.7345 37.8045 79.7345 38.8723C79.7345 40.3042 79.1669 41.6774 78.1565 42.6899C77.1462 43.7024 75.7758 44.2712 74.347 44.2712ZM86.1994 56.1488C85.1339 56.1488 84.0923 55.8322 83.2063 55.239C82.3203 54.6457 81.6298 53.8025 81.222 52.816C80.8143 51.8295 80.7076 50.7439 80.9155 49.6966C81.1234 48.6494 81.6365 47.6874 82.3899 46.9323C83.1433 46.1772 84.1033 45.663 85.1484 45.4547C86.1934 45.2464 87.2767 45.3533 88.2611 45.762C89.2455 46.1706 90.0869 46.8626 90.6789 47.7504C91.2709 48.6383 91.5869 49.6821 91.5869 50.7499C91.5869 52.1818 91.0193 53.555 90.0089 54.5675C88.9986 55.58 87.6283 56.1488 86.1994 56.1488ZM86.1994 32.3936C85.1339 32.3936 84.0923 32.0769 83.2063 31.4837C82.3203 30.8904 81.6298 30.0472 81.222 29.0607C80.8143 28.0742 80.7076 26.9886 80.9155 25.9414C81.1234 24.8941 81.6365 23.9321 82.3899 23.177C83.1433 22.422 84.1033 21.9078 85.1484 21.6994C86.1934 21.4911 87.2767 21.598 88.2611 22.0067C89.2455 22.4153 90.0869 23.1073 90.6789 23.9952C91.2709 24.883 91.5869 25.9268 91.5869 26.9946C91.5869 28.4265 91.0193 29.7998 90.0089 30.8123C88.9986 31.8248 87.6283 32.3936 86.1994 32.3936ZM98.0518 44.2712C96.9863 44.2712 95.9447 43.9546 95.0587 43.3613C94.1727 42.7681 93.4822 41.9249 93.0745 40.9384C92.6667 39.9518 92.56 38.8663 92.7679 37.819C92.9758 36.7717 93.4889 35.8097 94.2423 35.0547C94.9958 34.2996 95.9557 33.7854 97.0008 33.5771C98.0458 33.3688 99.1291 33.4757 100.114 33.8843C101.098 34.293 101.939 34.9849 102.531 35.8728C103.123 36.7606 103.439 37.8045 103.439 38.8723C103.439 40.3042 102.872 41.6774 101.861 42.6899C100.851 43.7024 99.4807 44.2712 98.0518 44.2712Z" fill="#FEFBFB"/>
</svg>
