<svg width="22" height="24" viewBox="0 0 22 24" fill="none" xmlns="http://www.w3.org/2000/svg">
<path fill-rule="evenodd" clip-rule="evenodd" d="M19.7544 7.1604C20.5451 8.32857 21.0976 9.64122 21.3804 11.0232C21.5264 11.7396 21.5999 12.4689 21.6 13.2C21.6037 15.3517 20.9611 17.4549 19.7556 19.2372C19.3665 19.8101 18.9246 20.3452 18.4356 20.8356C17.9472 21.326 17.4123 21.7677 16.8384 22.1544C15.6695 22.9429 14.3577 23.4953 12.9768 23.7804C12.2604 23.9263 11.5311 23.9999 10.8 24C8.64733 24.004 6.54314 23.361 4.7604 22.1544C3.61303 21.377 2.62422 20.3882 1.8468 19.2408C0.644263 17.4556 0.001277 15.3524 0 13.2H2.4C2.39964 14.8742 2.89987 16.5102 3.8364 17.898C4.43975 18.7926 5.20978 19.5626 6.1044 20.166C7.01284 20.7807 8.03346 21.2105 9.10799 21.4308C10.2255 21.6564 11.3769 21.6564 12.4944 21.4308C14.1013 21.0971 15.576 20.3018 16.7376 19.1424C17.119 18.7599 17.4637 18.3425 17.7672 17.8956C18.0695 17.446 18.3282 16.9686 18.54 16.47C18.9754 15.4348 19.1998 14.323 19.2 13.2C19.2023 11.5264 18.7024 9.89067 17.7648 8.50439C17.1609 7.60875 16.39 6.83789 15.4944 6.234C14.5862 5.61985 13.566 5.19049 12.492 4.9704C11.9316 4.8552 11.3508 4.8 10.77 4.8024V7.2L6 3.6L10.77 0V2.4024C11.5106 2.39881 12.2497 2.47119 12.9756 2.6184C14.3575 2.90147 15.6701 3.45399 16.8384 4.2444C17.9877 5.0213 18.9775 6.01113 19.7544 7.1604ZM14.4 13.1999C14.4 15.2027 12.8052 16.7999 10.8 16.7999C8.79478 16.7999 7.19998 15.2027 7.19998 13.1999C7.19998 11.1971 8.79478 9.59993 10.8 9.59993C12.8052 9.59993 14.4 11.1971 14.4 13.1999Z" fill="#FEFBFB"/>
</svg>
