<svg width="8" height="13" viewBox="0 0 8 13" fill="none" xmlns="http://www.w3.org/2000/svg">
<path d="M7.63536 7.27851L1.77303 12.2419C1.08328 12.8277 3.86732e-07 12.3516 3.47873e-07 11.4627L-8.60438e-08 1.5358C-0.000176357 1.33684 0.0589093 1.14205 0.170181 0.974761C0.281454 0.807467 0.440195 0.67476 0.627397 0.59253C0.814598 0.510301 1.02232 0.482034 1.2257 0.511117C1.42907 0.5402 1.61947 0.625399 1.7741 0.756511L7.63429 5.71994C7.74916 5.81708 7.84122 5.93687 7.90429 6.07128C7.96737 6.20569 8 6.35161 8 6.49923C8 6.64685 7.96737 6.79276 7.90429 6.92717C7.84122 7.06158 7.74916 7.18138 7.63429 7.27851L7.63536 7.27851Z" fill="#FEFBFB"/>
</svg>
